# xmcd
#
# Track frame offsets: 
#        182
#        14000
#        25152
#        40720
#        59030
#        72670
#        88880
#        101347
#        121797
#        142677
#        161237
#        174407
#        185910
#        198405
#        211615
#        226925
#        244832
#
# Disc length: 3457 seconds
#
# Revision: 2
# Processed by: cddbd v1.5.1PL0 Copyright (c) Steve Scherf et al.
# Submitted via: ExactAudioCopy v0.95a5
#
DISCID=ed0d7f11
DTITLE=Brint Anderson Band - Homage To Elmore
DYEAR=1995
DGENRE=Blues
TTITLE0=Gotta Move
TTITLE1=Everyday I Have The Blues
TTITLE2=Talking To My Baby On The Phone
TTITLE3=Dust My Broom
TTITLE4=I Can't Stop Lovin' My Baby Tonight
TTITLE5=Rollin' and Tumblin'
TTITLE6=I Must Have Done Somebody Wrong
TTITLE7=It Hurts Me Too
TTITLE8=Something Inside
TTITLE9=The Sky Is Crying
TTITLE10=Cross Roads( Stand At The Crossroads)
TTITLE11=One Way Out
TTITLE12=Ice Cream Man
TTITLE13=Pickin' The Blues
TTITLE14=Hand In Hand
TTITLE15=Shake Your Money Maker
TTITLE16=Stranger Blues
EXTD=
EXTT0=
EXTT1=
EXTT2=
EXTT3=
EXTT4=
EXTT5=
EXTT6=
EXTT7=
EXTT8=
EXTT9=
EXTT10=
EXTT11=
EXTT12=
EXTT13=
EXTT14=
EXTT15=
EXTT16=
PLAYORDER=
